<?xml version="1.0" encoding="UTF-8"?>
<svg xmlns="http://www.w3.org/2000/svg" width="1024" height="500" viewBox="0 0 1024 500">
  <rect width="1024" height="500" fill="#121212"/>
  <defs>
    <linearGradient id="beamGrad" x1="0" y1="0" x2="1" y2="0">
      <stop offset="0%"   stop-color="#ffffff" stop-opacity="0.50"/>
      <stop offset="100%" stop-color="#ffffff" stop-opacity="0.88"/>
    </linearGradient>
  </defs>
  <!-- incoming beam -->
  <rect x="0" y="241.4" width="316" height="16" fill="url(#beamGrad)"/>
  <!-- prism -->
  <polygon points="360,173 250,364 470,364" fill="#1c2a3e" stroke="#ffffff" stroke-opacity="0.15" stroke-width="1.5"/>
  <!-- app name -->
  <text x="65" y="155" font-family="'Roboto', Arial, sans-serif" font-size="46" font-weight="700" fill="#ffffff" letter-spacing="4">BEAD</text>
  <text x="65" y="188" font-family="'Roboto', Arial, sans-serif" font-size="28" font-weight="400" fill="#ffffffcc" letter-spacing="6">MANAGER</text>
  <!-- exit refraction point -->
  <circle cx="404" cy="249" r="4" fill="#ffffff"/>
  <!-- spectrum streams -->
  <circle cx="417.99" cy="249.89" r="5" fill="#FF4136"/>
  <circle cx="417.99" cy="249.89" r="2" fill="#121212"/>
  <circle cx="435.98" cy="250.52" r="5" fill="#FF4136"/>
  <circle cx="435.98" cy="250.52" r="2" fill="#121212"/>
  <circle cx="453.97" cy="251.14" r="5" fill="#FF4136"/>
  <circle cx="453.97" cy="251.14" r="2" fill="#121212"/>
  <circle cx="471.96" cy="251.77" r="5" fill="#FF4136"/>
  <circle cx="471.96" cy="251.77" r="2" fill="#121212"/>
  <circle cx="489.95" cy="252.40" r="5" fill="#FF4136"/>
  <circle cx="489.95" cy="252.40" r="2" fill="#121212"/>
  <circle cx="507.94" cy="253.03" r="5" fill="#FF4136"/>
  <circle cx="507.94" cy="253.03" r="2" fill="#121212"/>
  <circle cx="525.93" cy="253.66" r="5" fill="#FF4136"/>
  <circle cx="525.93" cy="253.66" r="2" fill="#121212"/>
  <circle cx="543.91" cy="254.29" r="5" fill="#FF4136"/>
  <circle cx="543.91" cy="254.29" r="2" fill="#121212"/>
  <circle cx="561.90" cy="254.91" r="5" fill="#FF4136"/>
  <circle cx="561.90" cy="254.91" r="2" fill="#121212"/>
  <circle cx="579.89" cy="255.54" r="5" fill="#FF4136"/>
  <circle cx="579.89" cy="255.54" r="2" fill="#121212"/>
  <circle cx="597.88" cy="256.17" r="5" fill="#FF4136"/>
  <circle cx="597.88" cy="256.17" r="2" fill="#121212"/>
  <circle cx="615.87" cy="256.80" r="5" fill="#FF4136"/>
  <circle cx="615.87" cy="256.80" r="2" fill="#121212"/>
  <circle cx="633.86" cy="257.43" r="5" fill="#FF4136"/>
  <circle cx="633.86" cy="257.43" r="2" fill="#121212"/>
  <circle cx="651.85" cy="258.06" r="5" fill="#FF4136"/>
  <circle cx="651.85" cy="258.06" r="2" fill="#121212"/>
  <circle cx="669.84" cy="258.68" r="5" fill="#FF4136"/>
  <circle cx="669.84" cy="258.68" r="2" fill="#121212"/>
  <circle cx="687.83" cy="259.31" r="5" fill="#FF4136"/>
  <circle cx="687.83" cy="259.31" r="2" fill="#121212"/>
  <circle cx="705.82" cy="259.94" r="5" fill="#FF4136"/>
  <circle cx="705.82" cy="259.94" r="2" fill="#121212"/>
  <circle cx="723.81" cy="260.57" r="5" fill="#FF4136"/>
  <circle cx="723.81" cy="260.57" r="2" fill="#121212"/>
  <circle cx="741.79" cy="261.20" r="5" fill="#FF4136"/>
  <circle cx="741.79" cy="261.20" r="2" fill="#121212"/>
  <circle cx="759.78" cy="261.82" r="5" fill="#FF4136"/>
  <circle cx="759.78" cy="261.82" r="2" fill="#121212"/>
  <circle cx="777.77" cy="262.45" r="5" fill="#FF4136"/>
  <circle cx="777.77" cy="262.45" r="2" fill="#121212"/>
  <circle cx="795.76" cy="263.08" r="5" fill="#FF4136"/>
  <circle cx="795.76" cy="263.08" r="2" fill="#121212"/>
  <circle cx="813.75" cy="263.71" r="5" fill="#FF4136"/>
  <circle cx="813.75" cy="263.71" r="2" fill="#121212"/>
  <circle cx="831.74" cy="264.34" r="5" fill="#FF4136"/>
  <circle cx="831.74" cy="264.34" r="2" fill="#121212"/>
  <circle cx="849.73" cy="264.97" r="5" fill="#FF4136"/>
  <circle cx="849.73" cy="264.97" r="2" fill="#121212"/>
  <circle cx="867.72" cy="265.59" r="5" fill="#FF4136"/>
  <circle cx="867.72" cy="265.59" r="2" fill="#121212"/>
  <circle cx="885.71" cy="266.22" r="5" fill="#FF4136"/>
  <circle cx="885.71" cy="266.22" r="2" fill="#121212"/>
  <circle cx="903.70" cy="266.85" r="5" fill="#FF4136"/>
  <circle cx="903.70" cy="266.85" r="2" fill="#121212"/>
  <circle cx="921.68" cy="267.48" r="5" fill="#FF4136"/>
  <circle cx="921.68" cy="267.48" r="2" fill="#121212"/>
  <circle cx="939.67" cy="268.11" r="5" fill="#FF4136"/>
  <circle cx="939.67" cy="268.11" r="2" fill="#121212"/>
  <circle cx="957.66" cy="268.73" r="5" fill="#FF4136"/>
  <circle cx="957.66" cy="268.73" r="2" fill="#121212"/>
  <circle cx="975.65" cy="269.36" r="5" fill="#FF4136"/>
  <circle cx="975.65" cy="269.36" r="2" fill="#121212"/>
  <circle cx="993.64" cy="269.99" r="5" fill="#FF4136"/>
  <circle cx="993.64" cy="269.99" r="2" fill="#121212"/>
  <circle cx="1011.63" cy="270.62" r="5" fill="#FF4136"/>
  <circle cx="1011.63" cy="270.62" r="2" fill="#121212"/>
  <circle cx="417.95" cy="250.62" r="5" fill="#FF851B"/>
  <circle cx="417.95" cy="250.62" r="2" fill="#121212"/>
  <circle cx="435.88" cy="252.19" r="5" fill="#FF851B"/>
  <circle cx="435.88" cy="252.19" r="2" fill="#121212"/>
  <circle cx="453.81" cy="253.76" r="5" fill="#FF851B"/>
  <circle cx="453.81" cy="253.76" r="2" fill="#121212"/>
  <circle cx="471.74" cy="255.33" r="5" fill="#FF851B"/>
  <circle cx="471.74" cy="255.33" r="2" fill="#121212"/>
  <circle cx="489.67" cy="256.90" r="5" fill="#FF851B"/>
  <circle cx="489.67" cy="256.90" r="2" fill="#121212"/>
  <circle cx="507.60" cy="258.46" r="5" fill="#FF851B"/>
  <circle cx="507.60" cy="258.46" r="2" fill="#121212"/>
  <circle cx="525.54" cy="260.03" r="5" fill="#FF851B"/>
  <circle cx="525.54" cy="260.03" r="2" fill="#121212"/>
  <circle cx="543.47" cy="261.60" r="5" fill="#FF851B"/>
  <circle cx="543.47" cy="261.60" r="2" fill="#121212"/>
  <circle cx="561.40" cy="263.17" r="5" fill="#FF851B"/>
  <circle cx="561.40" cy="263.17" r="2" fill="#121212"/>
  <circle cx="579.33" cy="264.74" r="5" fill="#FF851B"/>
  <circle cx="579.33" cy="264.74" r="2" fill="#121212"/>
  <circle cx="597.26" cy="266.31" r="5" fill="#FF851B"/>
  <circle cx="597.26" cy="266.31" r="2" fill="#121212"/>
  <circle cx="615.19" cy="267.88" r="5" fill="#FF851B"/>
  <circle cx="615.19" cy="267.88" r="2" fill="#121212"/>
  <circle cx="633.12" cy="269.45" r="5" fill="#FF851B"/>
  <circle cx="633.12" cy="269.45" r="2" fill="#121212"/>
  <circle cx="651.06" cy="271.01" r="5" fill="#FF851B"/>
  <circle cx="651.06" cy="271.01" r="2" fill="#121212"/>
  <circle cx="668.99" cy="272.58" r="5" fill="#FF851B"/>
  <circle cx="668.99" cy="272.58" r="2" fill="#121212"/>
  <circle cx="686.92" cy="274.15" r="5" fill="#FF851B"/>
  <circle cx="686.92" cy="274.15" r="2" fill="#121212"/>
  <circle cx="704.85" cy="275.72" r="5" fill="#FF851B"/>
  <circle cx="704.85" cy="275.72" r="2" fill="#121212"/>
  <circle cx="722.78" cy="277.29" r="5" fill="#FF851B"/>
  <circle cx="722.78" cy="277.29" r="2" fill="#121212"/>
  <circle cx="740.71" cy="278.86" r="5" fill="#FF851B"/>
  <circle cx="740.71" cy="278.86" r="2" fill="#121212"/>
  <circle cx="758.65" cy="280.43" r="5" fill="#FF851B"/>
  <circle cx="758.65" cy="280.43" r="2" fill="#121212"/>
  <circle cx="776.58" cy="282.00" r="5" fill="#FF851B"/>
  <circle cx="776.58" cy="282.00" r="2" fill="#121212"/>
  <circle cx="794.51" cy="283.57" r="5" fill="#FF851B"/>
  <circle cx="794.51" cy="283.57" r="2" fill="#121212"/>
  <circle cx="812.44" cy="285.13" r="5" fill="#FF851B"/>
  <circle cx="812.44" cy="285.13" r="2" fill="#121212"/>
  <circle cx="830.37" cy="286.70" r="5" fill="#FF851B"/>
  <circle cx="830.37" cy="286.70" r="2" fill="#121212"/>
  <circle cx="848.30" cy="288.27" r="5" fill="#FF851B"/>
  <circle cx="848.30" cy="288.27" r="2" fill="#121212"/>
  <circle cx="866.23" cy="289.84" r="5" fill="#FF851B"/>
  <circle cx="866.23" cy="289.84" r="2" fill="#121212"/>
  <circle cx="884.17" cy="291.41" r="5" fill="#FF851B"/>
  <circle cx="884.17" cy="291.41" r="2" fill="#121212"/>
  <circle cx="902.10" cy="292.98" r="5" fill="#FF851B"/>
  <circle cx="902.10" cy="292.98" r="2" fill="#121212"/>
  <circle cx="920.03" cy="294.55" r="5" fill="#FF851B"/>
  <circle cx="920.03" cy="294.55" r="2" fill="#121212"/>
  <circle cx="937.96" cy="296.12" r="5" fill="#FF851B"/>
  <circle cx="937.96" cy="296.12" r="2" fill="#121212"/>
  <circle cx="955.89" cy="297.68" r="5" fill="#FF851B"/>
  <circle cx="955.89" cy="297.68" r="2" fill="#121212"/>
  <circle cx="973.82" cy="299.25" r="5" fill="#FF851B"/>
  <circle cx="973.82" cy="299.25" r="2" fill="#121212"/>
  <circle cx="991.75" cy="300.82" r="5" fill="#FF851B"/>
  <circle cx="991.75" cy="300.82" r="2" fill="#121212"/>
  <circle cx="1009.69" cy="302.39" r="5" fill="#FF851B"/>
  <circle cx="1009.69" cy="302.39" r="2" fill="#121212"/>
  <circle cx="417.86" cy="251.35" r="5" fill="#FFD700"/>
  <circle cx="417.86" cy="251.35" r="2" fill="#121212"/>
  <circle cx="435.69" cy="253.85" r="5" fill="#FFD700"/>
  <circle cx="435.69" cy="253.85" r="2" fill="#121212"/>
  <circle cx="453.51" cy="256.36" r="5" fill="#FFD700"/>
  <circle cx="453.51" cy="256.36" r="2" fill="#121212"/>
  <circle cx="471.34" cy="258.86" r="5" fill="#FFD700"/>
  <circle cx="471.34" cy="258.86" r="2" fill="#121212"/>
  <circle cx="489.16" cy="261.37" r="5" fill="#FFD700"/>
  <circle cx="489.16" cy="261.37" r="2" fill="#121212"/>
  <circle cx="506.99" cy="263.87" r="5" fill="#FFD700"/>
  <circle cx="506.99" cy="263.87" r="2" fill="#121212"/>
  <circle cx="524.81" cy="266.38" r="5" fill="#FFD700"/>
  <circle cx="524.81" cy="266.38" r="2" fill="#121212"/>
  <circle cx="542.64" cy="268.88" r="5" fill="#FFD700"/>
  <circle cx="542.64" cy="268.88" r="2" fill="#121212"/>
  <circle cx="560.46" cy="271.39" r="5" fill="#FFD700"/>
  <circle cx="560.46" cy="271.39" r="2" fill="#121212"/>
  <circle cx="578.29" cy="273.89" r="5" fill="#FFD700"/>
  <circle cx="578.29" cy="273.89" r="2" fill="#121212"/>
  <circle cx="596.11" cy="276.40" r="5" fill="#FFD700"/>
  <circle cx="596.11" cy="276.40" r="2" fill="#121212"/>
  <circle cx="613.94" cy="278.90" r="5" fill="#FFD700"/>
  <circle cx="613.94" cy="278.90" r="2" fill="#121212"/>
  <circle cx="631.76" cy="281.41" r="5" fill="#FFD700"/>
  <circle cx="631.76" cy="281.41" r="2" fill="#121212"/>
  <circle cx="649.59" cy="283.91" r="5" fill="#FFD700"/>
  <circle cx="649.59" cy="283.91" r="2" fill="#121212"/>
  <circle cx="667.41" cy="286.42" r="5" fill="#FFD700"/>
  <circle cx="667.41" cy="286.42" r="2" fill="#121212"/>
  <circle cx="685.24" cy="288.93" r="5" fill="#FFD700"/>
  <circle cx="685.24" cy="288.93" r="2" fill="#121212"/>
  <circle cx="703.06" cy="291.43" r="5" fill="#FFD700"/>
  <circle cx="703.06" cy="291.43" r="2" fill="#121212"/>
  <circle cx="720.89" cy="293.94" r="5" fill="#FFD700"/>
  <circle cx="720.89" cy="293.94" r="2" fill="#121212"/>
  <circle cx="738.71" cy="296.44" r="5" fill="#FFD700"/>
  <circle cx="738.71" cy="296.44" r="2" fill="#121212"/>
  <circle cx="756.54" cy="298.95" r="5" fill="#FFD700"/>
  <circle cx="756.54" cy="298.95" r="2" fill="#121212"/>
  <circle cx="774.36" cy="301.45" r="5" fill="#FFD700"/>
  <circle cx="774.36" cy="301.45" r="2" fill="#121212"/>
  <circle cx="792.19" cy="303.96" r="5" fill="#FFD700"/>
  <circle cx="792.19" cy="303.96" r="2" fill="#121212"/>
  <circle cx="810.01" cy="306.46" r="5" fill="#FFD700"/>
  <circle cx="810.01" cy="306.46" r="2" fill="#121212"/>
  <circle cx="827.83" cy="308.97" r="5" fill="#FFD700"/>
  <circle cx="827.83" cy="308.97" r="2" fill="#121212"/>
  <circle cx="845.66" cy="311.47" r="5" fill="#FFD700"/>
  <circle cx="845.66" cy="311.47" r="2" fill="#121212"/>
  <circle cx="863.48" cy="313.98" r="5" fill="#FFD700"/>
  <circle cx="863.48" cy="313.98" r="2" fill="#121212"/>
  <circle cx="881.31" cy="316.48" r="5" fill="#FFD700"/>
  <circle cx="881.31" cy="316.48" r="2" fill="#121212"/>
  <circle cx="899.13" cy="318.99" r="5" fill="#FFD700"/>
  <circle cx="899.13" cy="318.99" r="2" fill="#121212"/>
  <circle cx="916.96" cy="321.49" r="5" fill="#FFD700"/>
  <circle cx="916.96" cy="321.49" r="2" fill="#121212"/>
  <circle cx="934.78" cy="324.00" r="5" fill="#FFD700"/>
  <circle cx="934.78" cy="324.00" r="2" fill="#121212"/>
  <circle cx="952.61" cy="326.50" r="5" fill="#FFD700"/>
  <circle cx="952.61" cy="326.50" r="2" fill="#121212"/>
  <circle cx="970.43" cy="329.01" r="5" fill="#FFD700"/>
  <circle cx="970.43" cy="329.01" r="2" fill="#121212"/>
  <circle cx="988.26" cy="331.51" r="5" fill="#FFD700"/>
  <circle cx="988.26" cy="331.51" r="2" fill="#121212"/>
  <circle cx="1006.08" cy="334.02" r="5" fill="#FFD700"/>
  <circle cx="1006.08" cy="334.02" r="2" fill="#121212"/>
  <circle cx="417.74" cy="252.07" r="5" fill="#2ECC40"/>
  <circle cx="417.74" cy="252.07" r="2" fill="#121212"/>
  <circle cx="435.41" cy="255.51" r="5" fill="#2ECC40"/>
  <circle cx="435.41" cy="255.51" r="2" fill="#121212"/>
  <circle cx="453.08" cy="258.94" r="5" fill="#2ECC40"/>
  <circle cx="453.08" cy="258.94" r="2" fill="#121212"/>
  <circle cx="470.75" cy="262.38" r="5" fill="#2ECC40"/>
  <circle cx="470.75" cy="262.38" r="2" fill="#121212"/>
  <circle cx="488.42" cy="265.81" r="5" fill="#2ECC40"/>
  <circle cx="488.42" cy="265.81" r="2" fill="#121212"/>
  <circle cx="506.09" cy="269.24" r="5" fill="#2ECC40"/>
  <circle cx="506.09" cy="269.24" r="2" fill="#121212"/>
  <circle cx="523.76" cy="272.68" r="5" fill="#2ECC40"/>
  <circle cx="523.76" cy="272.68" r="2" fill="#121212"/>
  <circle cx="541.43" cy="276.11" r="5" fill="#2ECC40"/>
  <circle cx="541.43" cy="276.11" r="2" fill="#121212"/>
  <circle cx="559.10" cy="279.55" r="5" fill="#2ECC40"/>
  <circle cx="559.10" cy="279.55" r="2" fill="#121212"/>
  <circle cx="576.77" cy="282.98" r="5" fill="#2ECC40"/>
  <circle cx="576.77" cy="282.98" r="2" fill="#121212"/>
  <circle cx="594.44" cy="286.42" r="5" fill="#2ECC40"/>
  <circle cx="594.44" cy="286.42" r="2" fill="#121212"/>
  <circle cx="612.10" cy="289.85" r="5" fill="#2ECC40"/>
  <circle cx="612.10" cy="289.85" r="2" fill="#121212"/>
  <circle cx="629.77" cy="293.29" r="5" fill="#2ECC40"/>
  <circle cx="629.77" cy="293.29" r="2" fill="#121212"/>
  <circle cx="647.44" cy="296.72" r="5" fill="#2ECC40"/>
  <circle cx="647.44" cy="296.72" r="2" fill="#121212"/>
  <circle cx="665.11" cy="300.16" r="5" fill="#2ECC40"/>
  <circle cx="665.11" cy="300.16" r="2" fill="#121212"/>
  <circle cx="682.78" cy="303.59" r="5" fill="#2ECC40"/>
  <circle cx="682.78" cy="303.59" r="2" fill="#121212"/>
  <circle cx="700.45" cy="307.02" r="5" fill="#2ECC40"/>
  <circle cx="700.45" cy="307.02" r="2" fill="#121212"/>
  <circle cx="718.12" cy="310.46" r="5" fill="#2ECC40"/>
  <circle cx="718.12" cy="310.46" r="2" fill="#121212"/>
  <circle cx="735.79" cy="313.89" r="5" fill="#2ECC40"/>
  <circle cx="735.79" cy="313.89" r="2" fill="#121212"/>
  <circle cx="753.46" cy="317.33" r="5" fill="#2ECC40"/>
  <circle cx="753.46" cy="317.33" r="2" fill="#121212"/>
  <circle cx="771.13" cy="320.76" r="5" fill="#2ECC40"/>
  <circle cx="771.13" cy="320.76" r="2" fill="#121212"/>
  <circle cx="788.80" cy="324.20" r="5" fill="#2ECC40"/>
  <circle cx="788.80" cy="324.20" r="2" fill="#121212"/>
  <circle cx="806.47" cy="327.63" r="5" fill="#2ECC40"/>
  <circle cx="806.47" cy="327.63" r="2" fill="#121212"/>
  <circle cx="824.14" cy="331.07" r="5" fill="#2ECC40"/>
  <circle cx="824.14" cy="331.07" r="2" fill="#121212"/>
  <circle cx="841.81" cy="334.50" r="5" fill="#2ECC40"/>
  <circle cx="841.81" cy="334.50" r="2" fill="#121212"/>
  <circle cx="859.48" cy="337.94" r="5" fill="#2ECC40"/>
  <circle cx="859.48" cy="337.94" r="2" fill="#121212"/>
  <circle cx="877.14" cy="341.37" r="5" fill="#2ECC40"/>
  <circle cx="877.14" cy="341.37" r="2" fill="#121212"/>
  <circle cx="894.81" cy="344.80" r="5" fill="#2ECC40"/>
  <circle cx="894.81" cy="344.80" r="2" fill="#121212"/>
  <circle cx="912.48" cy="348.24" r="5" fill="#2ECC40"/>
  <circle cx="912.48" cy="348.24" r="2" fill="#121212"/>
  <circle cx="930.15" cy="351.67" r="5" fill="#2ECC40"/>
  <circle cx="930.15" cy="351.67" r="2" fill="#121212"/>
  <circle cx="947.82" cy="355.11" r="5" fill="#2ECC40"/>
  <circle cx="947.82" cy="355.11" r="2" fill="#121212"/>
  <circle cx="965.49" cy="358.54" r="5" fill="#2ECC40"/>
  <circle cx="965.49" cy="358.54" r="2" fill="#121212"/>
  <circle cx="983.16" cy="361.98" r="5" fill="#2ECC40"/>
  <circle cx="983.16" cy="361.98" r="2" fill="#121212"/>
  <circle cx="1000.83" cy="365.41" r="5" fill="#2ECC40"/>
  <circle cx="1000.83" cy="365.41" r="2" fill="#121212"/>
  <circle cx="1018.50" cy="368.85" r="5" fill="#2ECC40"/>
  <circle cx="1018.50" cy="368.85" r="2" fill="#121212"/>
  <circle cx="417.58" cy="252.79" r="5" fill="#0074D9"/>
  <circle cx="417.58" cy="252.79" r="2" fill="#121212"/>
  <circle cx="435.05" cy="257.14" r="5" fill="#0074D9"/>
  <circle cx="435.05" cy="257.14" r="2" fill="#121212"/>
  <circle cx="452.51" cy="261.50" r="5" fill="#0074D9"/>
  <circle cx="452.51" cy="261.50" r="2" fill="#121212"/>
  <circle cx="469.98" cy="265.85" r="5" fill="#0074D9"/>
  <circle cx="469.98" cy="265.85" r="2" fill="#121212"/>
  <circle cx="487.45" cy="270.21" r="5" fill="#0074D9"/>
  <circle cx="487.45" cy="270.21" r="2" fill="#121212"/>
  <circle cx="504.91" cy="274.56" r="5" fill="#0074D9"/>
  <circle cx="504.91" cy="274.56" r="2" fill="#121212"/>
  <circle cx="522.38" cy="278.91" r="5" fill="#0074D9"/>
  <circle cx="522.38" cy="278.91" r="2" fill="#121212"/>
  <circle cx="539.84" cy="283.27" r="5" fill="#0074D9"/>
  <circle cx="539.84" cy="283.27" r="2" fill="#121212"/>
  <circle cx="557.31" cy="287.62" r="5" fill="#0074D9"/>
  <circle cx="557.31" cy="287.62" r="2" fill="#121212"/>
  <circle cx="574.77" cy="291.98" r="5" fill="#0074D9"/>
  <circle cx="574.77" cy="291.98" r="2" fill="#121212"/>
  <circle cx="592.24" cy="296.33" r="5" fill="#0074D9"/>
  <circle cx="592.24" cy="296.33" r="2" fill="#121212"/>
  <circle cx="609.70" cy="300.69" r="5" fill="#0074D9"/>
  <circle cx="609.70" cy="300.69" r="2" fill="#121212"/>
  <circle cx="627.17" cy="305.04" r="5" fill="#0074D9"/>
  <circle cx="627.17" cy="305.04" r="2" fill="#121212"/>
  <circle cx="644.63" cy="309.40" r="5" fill="#0074D9"/>
  <circle cx="644.63" cy="309.40" r="2" fill="#121212"/>
  <circle cx="662.10" cy="313.75" r="5" fill="#0074D9"/>
  <circle cx="662.10" cy="313.75" r="2" fill="#121212"/>
  <circle cx="679.56" cy="318.11" r="5" fill="#0074D9"/>
  <circle cx="679.56" cy="318.11" r="2" fill="#121212"/>
  <circle cx="697.03" cy="322.46" r="5" fill="#0074D9"/>
  <circle cx="697.03" cy="322.46" r="2" fill="#121212"/>
  <circle cx="714.49" cy="326.82" r="5" fill="#0074D9"/>
  <circle cx="714.49" cy="326.82" r="2" fill="#121212"/>
  <circle cx="731.96" cy="331.17" r="5" fill="#0074D9"/>
  <circle cx="731.96" cy="331.17" r="2" fill="#121212"/>
  <circle cx="749.43" cy="335.52" r="5" fill="#0074D9"/>
  <circle cx="749.43" cy="335.52" r="2" fill="#121212"/>
  <circle cx="766.89" cy="339.88" r="5" fill="#0074D9"/>
  <circle cx="766.89" cy="339.88" r="2" fill="#121212"/>
  <circle cx="784.36" cy="344.23" r="5" fill="#0074D9"/>
  <circle cx="784.36" cy="344.23" r="2" fill="#121212"/>
  <circle cx="801.82" cy="348.59" r="5" fill="#0074D9"/>
  <circle cx="801.82" cy="348.59" r="2" fill="#121212"/>
  <circle cx="819.29" cy="352.94" r="5" fill="#0074D9"/>
  <circle cx="819.29" cy="352.94" r="2" fill="#121212"/>
  <circle cx="836.75" cy="357.30" r="5" fill="#0074D9"/>
  <circle cx="836.75" cy="357.30" r="2" fill="#121212"/>
  <circle cx="854.22" cy="361.65" r="5" fill="#0074D9"/>
  <circle cx="854.22" cy="361.65" r="2" fill="#121212"/>
  <circle cx="871.68" cy="366.01" r="5" fill="#0074D9"/>
  <circle cx="871.68" cy="366.01" r="2" fill="#121212"/>
  <circle cx="889.15" cy="370.36" r="5" fill="#0074D9"/>
  <circle cx="889.15" cy="370.36" r="2" fill="#121212"/>
  <circle cx="906.61" cy="374.72" r="5" fill="#0074D9"/>
  <circle cx="906.61" cy="374.72" r="2" fill="#121212"/>
  <circle cx="924.08" cy="379.07" r="5" fill="#0074D9"/>
  <circle cx="924.08" cy="379.07" r="2" fill="#121212"/>
  <circle cx="941.54" cy="383.42" r="5" fill="#0074D9"/>
  <circle cx="941.54" cy="383.42" r="2" fill="#121212"/>
  <circle cx="959.01" cy="387.78" r="5" fill="#0074D9"/>
  <circle cx="959.01" cy="387.78" r="2" fill="#121212"/>
  <circle cx="976.47" cy="392.13" r="5" fill="#0074D9"/>
  <circle cx="976.47" cy="392.13" r="2" fill="#121212"/>
  <circle cx="993.94" cy="396.49" r="5" fill="#0074D9"/>
  <circle cx="993.94" cy="396.49" r="2" fill="#121212"/>
  <circle cx="1011.41" cy="400.84" r="5" fill="#0074D9"/>
  <circle cx="1011.41" cy="400.84" r="2" fill="#121212"/>
  <circle cx="417.31" cy="253.73" r="5" fill="#5B4AE8"/>
  <circle cx="417.31" cy="253.73" r="2" fill="#121212"/>
  <circle cx="434.43" cy="259.29" r="5" fill="#5B4AE8"/>
  <circle cx="434.43" cy="259.29" r="2" fill="#121212"/>
  <circle cx="451.55" cy="264.85" r="5" fill="#5B4AE8"/>
  <circle cx="451.55" cy="264.85" r="2" fill="#121212"/>
  <circle cx="468.67" cy="270.41" r="5" fill="#5B4AE8"/>
  <circle cx="468.67" cy="270.41" r="2" fill="#121212"/>
  <circle cx="485.79" cy="275.98" r="5" fill="#5B4AE8"/>
  <circle cx="485.79" cy="275.98" r="2" fill="#121212"/>
  <circle cx="502.91" cy="281.54" r="5" fill="#5B4AE8"/>
  <circle cx="502.91" cy="281.54" r="2" fill="#121212"/>
  <circle cx="520.03" cy="287.10" r="5" fill="#5B4AE8"/>
  <circle cx="520.03" cy="287.10" r="2" fill="#121212"/>
  <circle cx="537.15" cy="292.66" r="5" fill="#5B4AE8"/>
  <circle cx="537.15" cy="292.66" r="2" fill="#121212"/>
  <circle cx="554.27" cy="298.22" r="5" fill="#5B4AE8"/>
  <circle cx="554.27" cy="298.22" r="2" fill="#121212"/>
  <circle cx="571.39" cy="303.79" r="5" fill="#5B4AE8"/>
  <circle cx="571.39" cy="303.79" r="2" fill="#121212"/>
  <circle cx="588.50" cy="309.35" r="5" fill="#5B4AE8"/>
  <circle cx="588.50" cy="309.35" r="2" fill="#121212"/>
  <circle cx="605.62" cy="314.91" r="5" fill="#5B4AE8"/>
  <circle cx="605.62" cy="314.91" r="2" fill="#121212"/>
  <circle cx="622.74" cy="320.47" r="5" fill="#5B4AE8"/>
  <circle cx="622.74" cy="320.47" r="2" fill="#121212"/>
  <circle cx="639.86" cy="326.04" r="5" fill="#5B4AE8"/>
  <circle cx="639.86" cy="326.04" r="2" fill="#121212"/>
  <circle cx="656.98" cy="331.60" r="5" fill="#5B4AE8"/>
  <circle cx="656.98" cy="331.60" r="2" fill="#121212"/>
  <circle cx="674.10" cy="337.16" r="5" fill="#5B4AE8"/>
  <circle cx="674.10" cy="337.16" r="2" fill="#121212"/>
  <circle cx="691.22" cy="342.72" r="5" fill="#5B4AE8"/>
  <circle cx="691.22" cy="342.72" r="2" fill="#121212"/>
  <circle cx="708.34" cy="348.29" r="5" fill="#5B4AE8"/>
  <circle cx="708.34" cy="348.29" r="2" fill="#121212"/>
  <circle cx="725.46" cy="353.85" r="5" fill="#5B4AE8"/>
  <circle cx="725.46" cy="353.85" r="2" fill="#121212"/>
  <circle cx="742.58" cy="359.41" r="5" fill="#5B4AE8"/>
  <circle cx="742.58" cy="359.41" r="2" fill="#121212"/>
  <circle cx="759.70" cy="364.97" r="5" fill="#5B4AE8"/>
  <circle cx="759.70" cy="364.97" r="2" fill="#121212"/>
  <circle cx="776.81" cy="370.53" r="5" fill="#5B4AE8"/>
  <circle cx="776.81" cy="370.53" r="2" fill="#121212"/>
  <circle cx="793.93" cy="376.10" r="5" fill="#5B4AE8"/>
  <circle cx="793.93" cy="376.10" r="2" fill="#121212"/>
  <circle cx="811.05" cy="381.66" r="5" fill="#5B4AE8"/>
  <circle cx="811.05" cy="381.66" r="2" fill="#121212"/>
  <circle cx="828.17" cy="387.22" r="5" fill="#5B4AE8"/>
  <circle cx="828.17" cy="387.22" r="2" fill="#121212"/>
  <circle cx="845.29" cy="392.78" r="5" fill="#5B4AE8"/>
  <circle cx="845.29" cy="392.78" r="2" fill="#121212"/>
  <circle cx="862.41" cy="398.35" r="5" fill="#5B4AE8"/>
  <circle cx="862.41" cy="398.35" r="2" fill="#121212"/>
  <circle cx="879.53" cy="403.91" r="5" fill="#5B4AE8"/>
  <circle cx="879.53" cy="403.91" r="2" fill="#121212"/>
  <circle cx="896.65" cy="409.47" r="5" fill="#5B4AE8"/>
  <circle cx="896.65" cy="409.47" r="2" fill="#121212"/>
  <circle cx="913.77" cy="415.03" r="5" fill="#5B4AE8"/>
  <circle cx="913.77" cy="415.03" r="2" fill="#121212"/>
  <circle cx="930.89" cy="420.60" r="5" fill="#5B4AE8"/>
  <circle cx="930.89" cy="420.60" r="2" fill="#121212"/>
  <circle cx="948.00" cy="426.16" r="5" fill="#5B4AE8"/>
  <circle cx="948.00" cy="426.16" r="2" fill="#121212"/>
  <circle cx="965.12" cy="431.72" r="5" fill="#5B4AE8"/>
  <circle cx="965.12" cy="431.72" r="2" fill="#121212"/>
  <circle cx="982.24" cy="437.28" r="5" fill="#5B4AE8"/>
  <circle cx="982.24" cy="437.28" r="2" fill="#121212"/>
  <circle cx="999.36" cy="442.84" r="5" fill="#5B4AE8"/>
  <circle cx="999.36" cy="442.84" r="2" fill="#121212"/>
  <circle cx="1016.48" cy="448.41" r="5" fill="#5B4AE8"/>
  <circle cx="1016.48" cy="448.41" r="2" fill="#121212"/>
  <circle cx="416.98" cy="254.64" r="5" fill="#9B59B6"/>
  <circle cx="416.98" cy="254.64" r="2" fill="#121212"/>
  <circle cx="433.67" cy="261.39" r="5" fill="#9B59B6"/>
  <circle cx="433.67" cy="261.39" r="2" fill="#121212"/>
  <circle cx="450.36" cy="268.13" r="5" fill="#9B59B6"/>
  <circle cx="450.36" cy="268.13" r="2" fill="#121212"/>
  <circle cx="467.05" cy="274.87" r="5" fill="#9B59B6"/>
  <circle cx="467.05" cy="274.87" r="2" fill="#121212"/>
  <circle cx="483.74" cy="281.62" r="5" fill="#9B59B6"/>
  <circle cx="483.74" cy="281.62" r="2" fill="#121212"/>
  <circle cx="500.43" cy="288.36" r="5" fill="#9B59B6"/>
  <circle cx="500.43" cy="288.36" r="2" fill="#121212"/>
  <circle cx="517.12" cy="295.10" r="5" fill="#9B59B6"/>
  <circle cx="517.12" cy="295.10" r="2" fill="#121212"/>
  <circle cx="533.81" cy="301.84" r="5" fill="#9B59B6"/>
  <circle cx="533.81" cy="301.84" r="2" fill="#121212"/>
  <circle cx="550.50" cy="308.59" r="5" fill="#9B59B6"/>
  <circle cx="550.50" cy="308.59" r="2" fill="#121212"/>
  <circle cx="567.18" cy="315.33" r="5" fill="#9B59B6"/>
  <circle cx="567.18" cy="315.33" r="2" fill="#121212"/>
  <circle cx="583.87" cy="322.07" r="5" fill="#9B59B6"/>
  <circle cx="583.87" cy="322.07" r="2" fill="#121212"/>
  <circle cx="600.56" cy="328.82" r="5" fill="#9B59B6"/>
  <circle cx="600.56" cy="328.82" r="2" fill="#121212"/>
  <circle cx="617.25" cy="335.56" r="5" fill="#9B59B6"/>
  <circle cx="617.25" cy="335.56" r="2" fill="#121212"/>
  <circle cx="633.94" cy="342.30" r="5" fill="#9B59B6"/>
  <circle cx="633.94" cy="342.30" r="2" fill="#121212"/>
  <circle cx="650.63" cy="349.05" r="5" fill="#9B59B6"/>
  <circle cx="650.63" cy="349.05" r="2" fill="#121212"/>
  <circle cx="667.32" cy="355.79" r="5" fill="#9B59B6"/>
  <circle cx="667.32" cy="355.79" r="2" fill="#121212"/>
  <circle cx="684.01" cy="362.53" r="5" fill="#9B59B6"/>
  <circle cx="684.01" cy="362.53" r="2" fill="#121212"/>
  <circle cx="700.70" cy="369.27" r="5" fill="#9B59B6"/>
  <circle cx="700.70" cy="369.27" r="2" fill="#121212"/>
  <circle cx="717.39" cy="376.02" r="5" fill="#9B59B6"/>
  <circle cx="717.39" cy="376.02" r="2" fill="#121212"/>
  <circle cx="734.08" cy="382.76" r="5" fill="#9B59B6"/>
  <circle cx="734.08" cy="382.76" r="2" fill="#121212"/>
  <circle cx="750.77" cy="389.50" r="5" fill="#9B59B6"/>
  <circle cx="750.77" cy="389.50" r="2" fill="#121212"/>
  <circle cx="767.46" cy="396.25" r="5" fill="#9B59B6"/>
  <circle cx="767.46" cy="396.25" r="2" fill="#121212"/>
  <circle cx="784.15" cy="402.99" r="5" fill="#9B59B6"/>
  <circle cx="784.15" cy="402.99" r="2" fill="#121212"/>
  <circle cx="800.83" cy="409.73" r="5" fill="#9B59B6"/>
  <circle cx="800.83" cy="409.73" r="2" fill="#121212"/>
  <circle cx="817.52" cy="416.47" r="5" fill="#9B59B6"/>
  <circle cx="817.52" cy="416.47" r="2" fill="#121212"/>
  <circle cx="834.21" cy="423.22" r="5" fill="#9B59B6"/>
  <circle cx="834.21" cy="423.22" r="2" fill="#121212"/>
  <circle cx="850.90" cy="429.96" r="5" fill="#9B59B6"/>
  <circle cx="850.90" cy="429.96" r="2" fill="#121212"/>
  <circle cx="867.59" cy="436.70" r="5" fill="#9B59B6"/>
  <circle cx="867.59" cy="436.70" r="2" fill="#121212"/>
  <circle cx="884.28" cy="443.45" r="5" fill="#9B59B6"/>
  <circle cx="884.28" cy="443.45" r="2" fill="#121212"/>
  <circle cx="900.97" cy="450.19" r="5" fill="#9B59B6"/>
  <circle cx="900.97" cy="450.19" r="2" fill="#121212"/>
  <circle cx="917.66" cy="456.93" r="5" fill="#9B59B6"/>
  <circle cx="917.66" cy="456.93" r="2" fill="#121212"/>
  <circle cx="934.35" cy="463.67" r="5" fill="#9B59B6"/>
  <circle cx="934.35" cy="463.67" r="2" fill="#121212"/>
  <circle cx="951.04" cy="470.42" r="5" fill="#9B59B6"/>
  <circle cx="951.04" cy="470.42" r="2" fill="#121212"/>
  <circle cx="967.73" cy="477.16" r="5" fill="#9B59B6"/>
  <circle cx="967.73" cy="477.16" r="2" fill="#121212"/>
  <circle cx="984.42" cy="483.90" r="5" fill="#9B59B6"/>
  <circle cx="984.42" cy="483.90" r="2" fill="#121212"/>
  <circle cx="1001.11" cy="490.65" r="5" fill="#9B59B6"/>
  <circle cx="1001.11" cy="490.65" r="2" fill="#121212"/>
</svg>